<svg width="44" height="44" viewBox="0 0 44 44" fill="none" xmlns="http://www.w3.org/2000/svg">
<rect width="44" height="44" rx="10" fill="#FD3930"/>
<g clip-path="url(#clip0_80_2263)">
<path fill-rule="evenodd" clip-rule="evenodd" d="M16.0707 11.666H21.9082C26.4686 11.666 30.1655 15.3753 30.1655 19.9509C30.1655 22.7922 28.7683 25.306 26.6257 26.8386L27.7828 28.8426C28.3997 29.9112 28.0336 31.2776 26.965 31.8946C25.8964 32.5116 24.5299 32.1454 23.913 31.0768L22.3568 28.3815C22.1534 28.3962 21.948 28.4037 21.7408 28.4037H18.3069V30.0993C18.3069 31.3335 17.3057 32.3341 16.0707 32.3341C14.8357 32.3341 13.8345 31.3335 13.8345 30.0993V26.1661C13.8345 24.9319 14.8356 23.9314 16.0706 23.9313V23.9284H21.7408C23.9302 23.9284 25.7051 22.1476 25.7051 19.9509C25.7051 17.8469 24.0052 16.1413 21.9082 16.1413H16.0706V16.1384C14.8356 16.1383 13.8345 15.1372 13.8345 13.9022C13.8345 12.6673 14.8356 11.6661 16.0706 11.666C16.0706 11.666 16.0706 11.666 16.0707 11.666Z" fill="white"/>
</g>
<defs>
<clipPath id="clip0_80_2263">
<rect width="44" height="44" rx="15" fill="white"/>
</clipPath>
</defs>
</svg>
