<svg width="44" height="44" viewBox="0 0 44 44" fill="none" xmlns="http://www.w3.org/2000/svg">
<path d="M22 0C9.8505 0 0 9.8505 0 22C0 34.1495 9.8505 44 22 44C34.1495 44 44 34.1495 44 22C44 9.8505 34.1495 0 22 0ZM22.0733 7.073C24.4933 7.10783 26.9023 7.68717 29.0033 8.88617C30.0098 9.4545 30.7578 10.0632 31.273 10.527C29.4066 11.9652 27.9781 13.8952 27.148 16.1003C27.038 16.4028 26.9225 16.7493 26.8125 17.1013C26.5424 18.0604 26.3873 19.0482 26.3505 20.0438C26.345 20.3408 26.3542 20.7295 26.356 21.1035C26.378 21.5472 26.4477 22.055 26.5027 22.55C26.9145 25.0065 28.031 27.2905 29.7165 29.1243C30.7019 30.1819 31.8615 31.0625 33.1448 31.7277C31.8508 33.3906 30.2048 34.7467 28.325 35.6987C26.1419 36.7927 23.7128 37.303 21.274 37.18C21.1395 37.1737 21.005 37.1657 20.8707 37.1562C19.9388 37.0968 19.0152 36.9452 18.1133 36.7033C16.2403 36.2175 14.4786 35.3746 12.925 34.221C11.5196 33.1851 10.3384 31.8755 9.45267 30.371C9.04933 29.6743 6.721 25.5237 8.04283 20.3757C8.55839 18.3885 9.52657 16.5476 10.8717 14.9967C9.45684 15.3707 8.14011 16.0475 7.0125 16.9803C7.55333 15.7172 9.72767 11 15.0645 8.54333C17.2642 7.54406 19.6575 7.04323 22.0733 7.07667V7.073ZM32.527 11.671C32.8973 11.902 33.3777 12.2375 33.8763 12.7197C34.0743 12.9085 34.7527 13.5777 35.3797 14.652C36.1368 15.9408 36.3862 17.0848 36.5163 17.677C36.8208 19.0665 36.8289 20.5045 36.5402 21.8973C35.4954 20.6407 34.2243 19.591 32.7928 18.8027C31.8278 18.8818 30.8743 19.0662 29.9493 19.3527C29.2874 19.5569 28.6435 19.8157 28.0243 20.1263C28.0613 19.1538 28.2258 18.1904 28.5138 17.2608C28.8474 16.1863 29.3459 15.1701 29.9915 14.2487C30.695 13.2608 31.5508 12.3907 32.527 11.671Z" fill="#FD3930"/>
</svg>
